<?xml version="1.0" encoding="utf-8"?>
<!-- Generator: Adobe Illustrator 17.1.0, SVG Export Plug-In . SVG Version: 6.00 Build 0)  -->
<!DOCTYPE svg PUBLIC "-//W3C//DTD SVG 1.1//EN" "http://www.w3.org/Graphics/SVG/1.1/DTD/svg11.dtd">
<svg version="1.1" id="Layer_1" xmlns="http://www.w3.org/2000/svg" xmlns:xlink="http://www.w3.org/1999/xlink" x="0px" y="0px"
	 viewBox="0 0 287.986 288.856" enable-background="new 0 0 287.986 288.856" xml:space="preserve">
<g>
	<path d="M286.077,145.05c0,78.276-63.456,141.733-141.729,141.733c-78.282,0-141.736-63.456-141.736-141.733
		c0-78.277,63.454-141.732,141.736-141.732C222.621,3.318,286.077,66.773,286.077,145.05z"/>
</g>
<g>
	<path fill="#EE7219" d="M170.599,39.078l-26.254-35.76l-26.262,35.764c8.415-2.079,17.211-3.19,26.268-3.19
		C153.4,35.893,162.19,37.002,170.599,39.078z"/>
	<path fill="#EE7219" d="M150.631,270.371c0,3.47-2.812,6.286-6.285,6.286c-3.472,0-6.288-2.816-6.288-6.286
		c0-3.472,2.816-6.285,6.288-6.285C147.818,264.086,150.631,266.9,150.631,270.371z"/>
</g>
<path fill="#FFFFFF" d="M253.502,145.052c0,60.282-48.869,109.156-109.151,109.156c-60.288,0-109.163-48.874-109.163-109.156
	c0-60.287,48.875-109.159,109.163-109.159C204.633,35.893,253.502,84.765,253.502,145.052z"/>
<path d="M100.817,96.64c-0.15-0.379-0.212-0.537-0.212-0.797c0-0.36,0.267-0.755,0.595-0.902c0.229-0.129,0.388-0.129,0.858-0.129
	h0.802c0.756,0,1.117,0.078,1.413,0.809l3.648,9.396l3.384-8.937c0.229-0.61,0.445-1.042,1.144-1.042
	c0.735,0,0.943,0.525,1.146,1.035l3.234,8.952l3.797-9.209c0.393-0.883,0.576-1.004,1.513-1.004h0.802c0.444,0,0.586,0,0.835,0.119
	c0.367,0.148,0.592,0.581,0.592,0.912c0,0.248-0.073,0.465-0.216,0.805l-6.291,15.027c-0.218,0.496-0.439,1-1.14,1
	c-0.743,0-0.948-0.543-1.146-1.068l-3.185-8.806l-3.316,8.806c-0.203,0.517-0.409,1.043-1.146,1.043
	c-0.676,0-0.925-0.477-1.14-1.005L100.817,96.64z M143.838,103.696c0,5.061-4.151,9.177-9.255,9.177
	c-2.778,0-5.481-1.268-7.233-3.392c-1.306-1.6-1.996-3.6-1.996-5.786c0-5.162,4.141-9.205,9.427-9.205
	C139.691,94.491,143.838,98.705,143.838,103.696z M140.253,103.644c0-1.612-0.651-3.148-1.785-4.212
	c-1.035-0.989-2.403-1.511-3.962-1.511c-3.122,0-5.567,2.559-5.567,5.823c0,1.702,0.63,3.125,1.872,4.229
	c1.049,0.933,2.434,1.469,3.799,1.469C137.774,109.443,140.253,106.896,140.253,103.644z M147.257,112.271
	c-0.337-0.329-0.337-0.56-0.337-1.176V96.269c0-0.599,0-0.846,0.311-1.152c0.302-0.301,0.549-0.301,1.149-0.301h2.032
	c2.238,0,3.558,0.297,4.704,1.059c1.383,0.931,2.239,2.605,2.239,4.369c0,2.303-1.325,4.216-3.368,4.975l3.869,5.315
	c0.254,0.327,0.429,0.627,0.429,0.986c0,0.33-0.214,0.693-0.524,0.882c-0.262,0.159-0.595,0.149-0.909,0.149
	c-0.686,0-0.976,0-0.976,0c-0.844,0-1.043-0.078-1.485-0.747l-3.874-6.133v5.425c0,0.616-0.001,0.846-0.337,1.176
	c-0.324,0.28-0.525,0.28-1.124,0.28h-0.676C147.781,112.551,147.58,112.551,147.257,112.271z M150.516,102.464h0.27
	c1.011,0,1.738-0.165,2.228-0.505c0.517-0.356,0.824-0.987,0.824-1.69c0-0.624-0.288-1.216-0.75-1.543
	c-0.51-0.337-1.151-0.478-2.201-0.478h-0.371V102.464z M93.889,188.363c0.254,0.327,0.428,0.626,0.428,0.985
	c0,0.33-0.213,0.693-0.524,0.883c-0.262,0.159-0.594,0.148-0.909,0.148c-0.687,0-0.976,0-0.976,0c-0.844,0-1.043-0.078-1.485-0.747
	l-3.874-6.133l-0.001,5.425c0,0.615,0,0.846-0.337,1.176c-0.323,0.279-0.525,0.279-1.123,0.279h-0.676c-0.599,0-0.8,0-1.123-0.279
	c-0.337-0.33-0.337-0.561-0.337-1.176v-14.826c0-0.599,0-0.846,0.31-1.152c0.303-0.301,0.549-0.301,1.15-0.301h2.032
	c2.238,0,3.558,0.297,4.704,1.059c1.383,0.932,2.239,2.605,2.239,4.369c0,2.303-1.325,4.216-3.368,4.975L93.889,188.363z
	 M89.871,178.098c0-0.625-0.288-1.216-0.75-1.543c-0.509-0.337-1.151-0.477-2.201-0.477H86.55v4.216h0.27
	c1.011,0,1.738-0.165,2.228-0.505C89.564,179.432,89.871,178.801,89.871,178.098z M163.339,112.551h5.606
	c0.616,0,0.846,0,1.152-0.303l0.028-0.031c0.279-0.324,0.279-0.525,0.279-1.123v-0.523c0-0.593,0-0.793-0.277-1.118l-0.03-0.034
	c-0.307-0.303-0.536-0.303-1.152-0.303h-3.466V96.267c0-0.615,0-0.845-0.334-1.173c-0.323-0.281-0.542-0.281-1.126-0.281h-0.681
	c-0.595,0-0.796,0-1.119,0.278l-0.028,0.025c-0.309,0.306-0.309,0.537-0.309,1.151v14.827c0,0.599,0,0.848,0.302,1.146
	C162.486,112.551,162.736,112.551,163.339,112.551z M173.942,112.245c-0.308-0.304-0.308-0.552-0.308-1.15V96.267
	c0-0.598,0-0.845,0.309-1.151c0.304-0.303,0.549-0.303,1.146-0.303h2.579c2.993,0,4.751,0.467,6.494,1.724
	c2.226,1.642,3.449,4.173,3.449,7.133c0,3.023-1.236,5.506-3.575,7.182c-1.761,1.285-3.324,1.699-6.42,1.699h-2.527
	C174.492,112.551,174.247,112.551,173.942,112.245z M177.222,109.116h0.596c1.89,0,3.051-0.308,4.148-1.1
	c1.308-0.97,2.061-2.545,2.061-4.319c0-1.786-0.772-3.423-2.066-4.376c-1.007-0.752-2.243-1.072-4.142-1.072h-0.596V109.116z
	 M84.262,158.304c-0.458,0.301-0.766,0.301-1.646,0.301c-0.771,0-1.567,0-1.567,0c-1.692,0-1.879-0.124-2.499-1.654l-2.747-6.277
	h-13.27l-3.089,6.784c-0.481,1.095-0.935,1.148-2.297,1.148h-1.471c-0.892,0-1.157-0.027-1.48-0.189
	c-0.568-0.285-0.863-0.832-0.863-1.321c0-0.39,0.093-0.624,0.28-1.056c0.187-0.432,14.025-30.12,14.025-30.12
	c0.488-1.071,0.82-1.578,1.756-1.578c0.938,0,1.255,0.482,1.757,1.582l13.513,30.099c0.229,0.515,0.298,0.671,0.298,1.073
	C84.961,157.452,84.715,158.006,84.262,158.304z M73.378,144.958l-4.046-9.239l-4.253,9.239H73.378z M117.923,159.047
	c0.581,0,1.059-0.305,1.341-0.752c0.271-0.43,0.27-0.697,0.27-1.594v-29.477c0-1.172,0-1.451-0.453-1.897l-0.03-0.027
	c-0.492-0.418-0.754-0.418-1.861-0.418h-1.324c-1.107,0-1.37,0-1.862,0.418l-0.03,0.027c-0.451,0.448-0.451,0.726-0.451,1.897
	v19.538l-20.535-21.47c-0.663-0.708-1.01-1.048-1.666-1.048c-0.553,0-1.096,0.307-1.336,0.75c-0.271,0.411-0.271,0.695-0.271,1.595
	v29.671c0,1.167,0,1.444,0.447,1.895l0.033,0.031c0.492,0.418,0.755,0.418,1.864,0.418h1.322c1.111,0,1.375,0,1.864-0.419
	l0.028-0.027c0.454-0.452,0.454-0.729,0.454-1.897v-19.73l20.535,21.468C116.927,158.704,117.276,159.047,117.923,159.047z
	 M177.231,158.191c0.336-0.317,0.553-0.646,0.553-1.096c0-0.204-0.025-0.415-0.059-0.683c-0.013-0.105-0.027-0.221-0.046-0.384
	l-5.093-29.047c-0.213-1.19-0.477-2.101-1.75-2.101c-0.967,0-1.297,0.621-1.755,1.633l-9.348,20.519l-9.07-20.509
	c-0.494-1.142-0.809-1.642-1.76-1.642c-1.238,0-1.479,0.811-1.705,2.042l-5.675,29.016c-0.099,0.396-0.165,0.841-0.165,1.107
	c0,0.456,0.159,0.738,0.401,1.021c0.464,0.541,0.831,0.541,1.893,0.541h1.419c1.115,0,1.316,0,1.763-0.371
	c0.433-0.363,0.471-0.572,0.651-1.582l2.957-16.507l7.429,16.835c0.48,1.006,0.798,1.574,1.752,1.574
	c0.932,0,1.311-0.489,1.807-1.583l7.594-16.756l2.611,16.344l0.04,0.204c0.169,0.884,0.214,1.122,0.633,1.474
	c0.442,0.368,0.644,0.368,1.761,0.368h1.418C176.511,158.606,176.79,158.606,177.231,158.191z M182.115,155.672l13.873-29.752
	c0.501-1.096,0.819-1.578,1.759-1.578c0.937,0,1.255,0.483,1.755,1.582l13.501,30.066c0.237,0.535,0.31,0.696,0.31,1.105
	c0,0.551-0.451,1.111-0.889,1.312c-0.438,0.201-0.559,0.198-1.455,0.198h-1.566c-1.69,0-1.877-0.124-2.5-1.653l-2.746-6.278h-13.27
	l-3.085,6.778c-0.489,1.1-0.942,1.153-2.301,1.153h-1.468c-0.893,0-1.096,0-1.482-0.189c-0.518-0.196-0.862-0.832-0.862-1.321
	c0-0.39,0.064-0.544,0.276-1.058L182.115,155.672z M193.429,144.958h8.303l-4.046-9.239L193.429,144.958z M233.843,153.371
	l-0.031-0.034c-0.449-0.445-0.727-0.445-1.896-0.445h-7.277v-25.669c0-1.169,0-1.447-0.448-1.896l-0.032-0.03
	c-0.492-0.417-0.756-0.417-1.865-0.417h-1.326c-1.109,0-1.373,0-1.866,0.417l-0.033,0.03c-0.448,0.449-0.448,0.727-0.448,1.896
	v29.039c0,1.137,0,1.441,0.451,1.896c0.452,0.447,0.758,0.447,1.896,0.447h10.949c1.171,0,1.449,0,1.898-0.449l0.027-0.031
	c0.422-0.491,0.422-0.754,0.422-1.863v-1.03C234.263,154.128,234.263,153.865,233.843,153.371z M79.667,178.117
	c0,1.496-0.606,2.962-1.621,3.915c-1.069,1.038-2.611,1.567-4.577,1.567h-0.648v5.322c0,0.617-0.02,0.881-0.31,1.151
	c-0.306,0.285-0.551,0.303-1.151,0.303h-0.673c-0.599,0-0.845-0.018-1.151-0.303c-0.289-0.27-0.309-0.534-0.309-1.151v-14.828
	c0-0.597,0-0.844,0.304-1.148c0.306-0.303,0.554-0.303,1.152-0.303h1.935c2.645,0,3.815,0.268,5.006,1.154
	C78.887,174.771,79.667,176.427,79.667,178.117z M76.175,178.095c0-0.657-0.266-1.245-0.712-1.574
	c-0.497-0.352-1.177-0.494-2.344-0.494h-0.298v4.189h0.397c1.152,0,1.817-0.16,2.298-0.555
	C75.921,179.317,76.175,178.715,76.175,178.095z M114.684,181.519c0,5.063-4.151,9.181-9.254,9.181
	c-2.779,0-5.482-1.269-7.229-3.392c-1.307-1.597-1.997-3.597-1.997-5.789c0-5.161,4.141-9.203,9.426-9.203
	C110.538,172.316,114.684,176.53,114.684,181.519z M111.099,181.469c0-1.616-0.649-3.15-1.78-4.208
	c-1.035-0.99-2.402-1.511-3.964-1.511c-3.122,0-5.569,2.559-5.569,5.82c0,1.703,0.629,3.128,1.872,4.23
	c1.049,0.932,2.432,1.468,3.799,1.468C108.62,187.269,111.099,184.72,111.099,181.469z M126.925,172.938
	c-0.306-0.294-0.518-0.294-1.146-0.294h-8.349c-0.615,0-0.844,0-1.173,0.326c-0.284,0.323-0.284,0.542-0.284,1.124v0.524
	c0,0.581,0,0.799,0.28,1.124l0.026,0.027c0.304,0.307,0.534,0.307,1.151,0.307h2.381v12.846c0,0.617,0.003,0.855,0.31,1.152
	c0.307,0.298,0.551,0.302,1.147,0.302h0.676c0.595,0,0.84-0.004,1.147-0.302c0.307-0.297,0.31-0.535,0.31-1.152v-12.846h2.378
	c0.613,0,0.841,0,1.149-0.299l0.036-0.039c0.272-0.326,0.272-0.524,0.272-1.12v-0.524c0-0.578,0-0.797-0.275-1.119L126.925,172.938z
	 M140.581,172.941c-0.304-0.299-0.534-0.299-1.148-0.299h-7.376c-0.598,0-0.844,0-1.147,0.296c-0.312,0.306-0.312,0.558-0.312,1.156
	v14.828c0,0.602,0,0.855,0.308,1.148c0.305,0.306,0.553,0.306,1.151,0.306h7.376c0.616,0,0.847,0,1.151-0.306l0.026-0.026
	c0.282-0.327,0.282-0.527,0.282-1.122v-0.526c0-0.594,0-0.794-0.282-1.121l-0.026-0.026c-0.305-0.306-0.535-0.306-1.151-0.306h-5.24
	v-4.493h5.04c0.614,0,0.844,0,1.151-0.305l0.028-0.03c0.277-0.321,0.277-0.54,0.277-1.117v-0.524c0-0.598,0-0.798-0.277-1.121
	l-0.026-0.027c-0.307-0.308-0.539-0.308-1.153-0.308h-5.04v-2.941h5.24c0.616,0,0.847,0,1.151-0.304l0.028-0.029
	c0.28-0.328,0.28-0.528,0.28-1.124v-0.524c0-0.578,0-0.797-0.282-1.121L140.581,172.941z M157.148,173.364
	c-1.149-0.667-2.679-1.051-4.195-1.051c-5.151,0-9.342,4.165-9.342,9.284c0,5.019,4.112,9.103,9.166,9.103
	c1.206,0,2.384-0.222,3.384-0.632c0.367-0.134,1.05-0.422,1.323-0.676c0.352-0.298,0.352-0.638,0.352-1.146v-0.901
	c0-0.366,0-1.477-0.979-1.477c-0.261,0-0.539,0.114-0.698,0.24c-0.963,0.766-2.218,1.161-3.382,1.161
	c-3.129,0-5.578-2.502-5.578-5.695c0-3.265,2.483-5.825,5.652-5.825c0.872,0,1.646,0.2,2.505,0.64
	c1.17,0.625,1.191,0.639,1.501,0.639c0.648,0,0.979-0.491,0.979-1.456v-0.8C157.836,173.99,157.77,173.75,157.148,173.364z
	 M171.048,172.942c-0.304-0.298-0.534-0.298-1.148-0.298h-8.346c-0.614,0-0.844,0-1.149,0.298l-0.026,0.028
	c-0.284,0.323-0.284,0.542-0.284,1.124v0.524c0,0.581,0,0.8,0.282,1.124l0.025,0.029c0.307,0.305,0.536,0.305,1.152,0.305h2.377
	v12.846c0,0.614,0,0.842,0.3,1.146l0.037,0.034c0.327,0.273,0.528,0.273,1.121,0.273h0.674c0.595,0,0.796,0,1.12-0.273l0.034-0.032
	c0.308-0.305,0.308-0.534,0.308-1.148v-12.846h2.375c0.616,0,0.847,0,1.15-0.305l0.028-0.029c0.277-0.325,0.277-0.527,0.277-1.124
	v-0.524c0-0.58,0-0.799-0.278-1.121L171.048,172.942z M199.762,181.519c0,5.063-4.15,9.181-9.252,9.181
	c-2.781,0-5.485-1.269-7.234-3.392c-1.304-1.601-1.995-3.601-1.995-5.789c0-5.161,4.141-9.203,9.427-9.203
	C195.616,172.316,199.762,176.53,199.762,181.519z M196.181,181.469c0-1.616-0.65-3.15-1.786-4.208
	c-1.033-0.99-2.403-1.511-3.961-1.511c-3.123,0-5.568,2.559-5.568,5.82c0,1.7,0.629,3.123,1.868,4.23
	c1.048,0.932,2.436,1.468,3.804,1.468C193.703,187.269,196.181,184.72,196.181,181.469z M216.924,172.644h-0.679
	c-0.597,0-0.81,0-1.132,0.288c-0.304,0.271-0.321,0.55-0.321,1.166v9.329l-10.039-10.491c-0.357-0.385-0.599-0.623-1.041-0.623
	c-0.38,0-0.723,0.217-0.904,0.512c-0.176,0.285-0.176,0.474-0.176,0.945v15.152c0,0.617,0.004,0.85,0.336,1.175
	c0.264,0.259,0.539,0.279,1.12,0.279h0.674c0.581,0,0.855-0.02,1.12-0.279c0.332-0.325,0.336-0.558,0.336-1.175v-9.433
	l10.042,10.495c0.356,0.383,0.601,0.617,1.037,0.617c0.38,0,0.733-0.208,0.911-0.512c0.162-0.275,0.169-0.473,0.169-0.944v-15.048
	c0-0.616-0.018-0.895-0.321-1.166C217.733,172.644,217.52,172.644,216.924,172.644z M132.284,158.605
	c1.118,0,1.442-0.006,1.896-0.436c0.453-0.43,0.468-0.741,0.468-1.907v-29.039c0-1.17,0-1.449-0.454-1.898l-0.032-0.029
	c-0.494-0.416-0.76-0.416-1.877-0.416h-1.338c-1.117,0-1.384,0-1.878,0.416l-0.033,0.029c-0.454,0.449-0.454,0.728-0.454,1.898
	v29.039c0,1.167,0.014,1.478,0.468,1.907c0.453,0.43,0.777,0.436,1.896,0.436H132.284z M176.652,172.64h-0.738
	c-0.597,0-0.809,0-1.131,0.288c-0.305,0.271-0.322,0.55-0.322,1.166v14.828c0,0.62,0,0.849,0.317,1.157
	c0.355,0.297,0.559,0.297,1.16,0.297h0.689c0.602,0,0.805,0,1.16-0.297c0.317-0.309,0.317-0.537,0.317-1.157v-14.828
	c0-0.616-0.018-0.895-0.322-1.166C177.461,172.64,177.249,172.64,176.652,172.64z"/>
</svg>
